<?xml version="1.0" encoding="iso-8859-1"?>
<!-- Generator: Adobe Illustrator 19.0.0, SVG Export Plug-In . SVG Version: 6.00 Build 0)  -->
<svg version="1.1" id="Capa_1" xmlns="http://www.w3.org/2000/svg" xmlns:xlink="http://www.w3.org/1999/xlink" x="0px" y="0px"
	 viewBox="0 0 512 512" style="enable-background:new 0 0 512 512;" xml:space="preserve">
<polygon style="fill:#5C6F74;" points="139.516,45 256,482 512,482 512,135 "/>
<polygon style="fill:#7A888A;" points="0,135 0,482 256,482 256,45 "/>
<polygon style="fill:#EAF7FF;" points="199.516,105 256,452 482,452 482,105 "/>
<rect x="30" y="105" style="fill:#FFFFFF;" width="226" height="347"/>
<polygon style="fill:#F85B3F;" points="512,135 512,30 407,30 377,82.5 407,135 "/>
<polygon style="fill:#3E575F;" points="407,135 407,30 256,30 226,82.5 256,135 "/>
<rect y="30" style="fill:#5C6F74;" width="256" height="105"/>
<polygon style="fill:#849A49;" points="256,267 226,344.5 256,422 265.103,422 294.603,377 452,377 452,267 "/>
<polygon style="fill:#A5B849;" points="60,267 60,377 217.397,377 246.897,422 256,422 256,267 "/>
<g>
</g>
<g>
</g>
<g>
</g>
<g>
</g>
<g>
</g>
<g>
</g>
<g>
</g>
<g>
</g>
<g>
</g>
<g>
</g>
<g>
</g>
<g>
</g>
<g>
</g>
<g>
</g>
<g>
</g>
</svg>
